<svg width="24" height="34" viewBox="0 0 24 34" fill="none" xmlns="http://www.w3.org/2000/svg">
<path d="M12 16.1667C10.8949 16.1667 9.8351 15.7277 9.0537 14.9463C8.2723 14.1649 7.83331 13.1051 7.83331 12C7.83331 10.8949 8.2723 9.83512 9.0537 9.05372C9.8351 8.27232 10.8949 7.83333 12 7.83333C13.105 7.83333 14.1649 8.27232 14.9463 9.05372C15.7277 9.83512 16.1666 10.8949 16.1666 12C16.1666 12.5472 16.0589 13.089 15.8495 13.5945C15.6401 14.1 15.3332 14.5594 14.9463 14.9463C14.5593 15.3332 14.1 15.6401 13.5945 15.8495C13.089 16.0589 12.5472 16.1667 12 16.1667ZM12 0.333328C8.90579 0.333328 5.93832 1.56249 3.7504 3.75042C1.56248 5.93834 0.333313 8.9058 0.333313 12C0.333313 20.75 12 33.6667 12 33.6667C12 33.6667 23.6666 20.75 23.6666 12C23.6666 8.9058 22.4375 5.93834 20.2496 3.75042C18.0616 1.56249 15.0942 0.333328 12 0.333328Z" fill="#181613"/>
</svg>
