<svg width="34" height="26" viewBox="0 0 34 26" fill="none" xmlns="http://www.w3.org/2000/svg">
<path d="M32 0.5H2C1.66848 0.5 1.35054 0.631696 1.11612 0.866117C0.881696 1.10054 0.75 1.41848 0.75 1.75V23C0.75 23.663 1.01339 24.2989 1.48223 24.7678C1.95107 25.2366 2.58696 25.5 3.25 25.5H30.75C31.413 25.5 32.0489 25.2366 32.5178 24.7678C32.9866 24.2989 33.25 23.663 33.25 23V1.75C33.25 1.41848 33.1183 1.10054 32.8839 0.866117C32.6495 0.631696 32.3315 0.5 32 0.5ZM28.7859 3L17 13.8047L5.21406 3H28.7859ZM30.75 23H3.25V4.59219L16.1547 16.4219C16.3853 16.6336 16.687 16.751 17 16.751C17.313 16.751 17.6147 16.6336 17.8453 16.4219L30.75 4.59219V23Z" fill="#2E2A27"/>
<path d="M30.75 23H3.25V4.59219L16.1547 16.4219C16.3853 16.6336 16.687 16.751 17 16.751C17.313 16.751 17.6147 16.6336 17.8453 16.4219L30.75 4.59219V23Z" fill="#2E2A27"/>
</svg>
