<svg width="25" height="33" viewBox="0 0 25 33" fill="none" xmlns="http://www.w3.org/2000/svg">
<path d="M6.56726 1.132C7.44243 0.868135 8.38157 0.911972 9.22835 1.25621C10.0751 1.60046 10.7785 2.22434 11.2213 3.024L11.3693 3.322L12.6933 6.264C13.0951 7.15697 13.2255 8.14836 13.0683 9.11487C12.9112 10.0814 12.4733 10.9804 11.8093 11.7L11.5433 11.964L9.45726 13.91C9.08126 14.266 9.36326 15.644 10.7233 18C11.9473 20.12 12.9433 21.11 13.4333 21.164H13.5193L13.6253 21.144L17.7253 19.89C18.2763 19.721 18.8643 19.7143 19.419 19.8707C19.9738 20.0272 20.4717 20.34 20.8533 20.772L21.0353 21.002L23.7493 24.762C24.2812 25.499 24.5462 26.3951 24.5008 27.3029C24.4553 28.2106 24.1021 29.0758 23.4993 29.756L23.2553 30.008L22.1713 31.036C21.1979 31.9578 19.9802 32.5808 18.6631 32.8307C17.3459 33.0807 15.9847 32.9472 14.7413 32.446C10.8713 30.886 7.35526 27.322 4.16126 21.79C0.961263 16.244 -0.368736 11.41 0.225264 7.27C0.405011 6.01853 0.920344 4.83911 1.71653 3.85699C2.51272 2.87487 3.56004 2.12672 4.74726 1.692L5.13326 1.564L6.56726 1.132Z" fill="#181613"/>
</svg>
