<svg width="35" height="29" viewBox="0 0 35 29" fill="none" xmlns="http://www.w3.org/2000/svg">
<path fill-rule="evenodd" clip-rule="evenodd" d="M30.9616 0.383336C31.3735 0.209988 31.8243 0.150201 32.2671 0.210198C32.7099 0.270195 33.1285 0.447784 33.4794 0.724478C33.8303 1.00117 34.1006 1.36686 34.2622 1.78347C34.4238 2.20009 34.4708 2.6524 34.3983 3.09334L30.6183 26.0217C30.2516 28.2333 27.825 29.5017 25.7966 28.4C24.1 27.4783 21.58 26.0583 19.3133 24.5767C18.18 23.835 14.7083 21.46 15.135 19.77C15.5016 18.325 21.335 12.895 24.6683 9.66667C25.9766 8.39834 25.38 7.66667 23.835 8.83334C19.9983 11.73 13.8383 16.135 11.8016 17.375C10.005 18.4683 9.06828 18.655 7.94828 18.4683C5.90495 18.1283 4.00995 17.6017 2.46328 16.96C0.373285 16.0933 0.474952 13.22 2.46162 12.3833L30.9616 0.383336Z" fill="#181613"/>
</svg>
