<svg width="80" height="70" viewBox="0 0 80 70" fill="none" xmlns="http://www.w3.org/2000/svg">
<path d="M71.3129 11.9839C61.1956 9.49877 54.9564 24.5189 48.1706 36.9135C32.5749 26.8558 23.5826 -1.39378 9.22281 0.0536227C-11.079 2.09793 4.90892 63.4738 30.3169 69.7121C40.8659 72.3026 47.2318 56.9508 53.154 42.2115C67.8466 46.819 76.316 37.725 78.7641 30.9522C82.0837 21.7802 78.4195 13.7278 71.3129 11.98V11.9839ZM30.4476 51.9883C24.5017 50.5292 16.1155 42.8552 10.8588 33.7846C5.88737 25.2056 4.63163 17.3405 5.35259 12.2063C5.75268 9.38173 8.14533 6.30357 11.1639 6.24505C13.6001 6.19433 17.189 8.56245 19.7164 11.11C26.7596 18.2105 34.2822 33.0746 46.7604 39.4299C42.1494 47.4315 37.1581 53.6347 30.4476 51.9883ZM75.3138 29.181C71.7209 40.0892 64.0595 43.3936 54.0849 39.8902C59.1752 27.2421 63.818 16.4237 70.9682 18.1793C75.5079 19.295 76.6844 25.0105 75.3138 29.181Z" fill="#F5B41A"/>
<path d="M74.6443 13.4157C74.4542 13.3299 71.4792 12.0698 67.3872 15.9477C64.5192 18.663 62.9741 21.9011 62.9662 21.948V21.9558C65.3351 18.9712 67.9259 17.4341 70.9722 18.1793C75.5119 19.295 76.6884 25.0105 75.3178 29.181C71.7249 40.0892 64.0635 43.3936 54.0889 39.8902C51.2486 38.7861 49.5175 37.7211 48.1706 36.9174C34.0287 27.7922 25.3137 3.70528 13.101 0.381335C7.29364 1.34497 5.64177 9.33882 5.35259 12.2024C5.47539 11.6445 5.63384 11.1256 5.83587 10.6614C7.89972 5.92124 13.3069 5.40236 18.9637 11.1022C26.007 18.2027 34.2782 33.0668 46.7564 39.4221C49.157 40.6471 50.694 41.3649 53.15 42.2076C67.8426 46.8151 76.3121 37.7211 78.7602 30.9483C81.5093 23.3485 79.4613 16.5212 74.6404 13.4118L74.6443 13.4157Z" fill="#151515"/>
<path d="M74.6443 13.4157C73.8323 12.8422 72.4894 12.2765 71.3129 11.9878C53.7206 7.66904 47.8537 56.2642 30.4476 51.9922C30.4476 51.9922 36.8491 54.6568 42.3039 54.1496C47.0337 53.7088 49.6323 50.7321 50.0602 49.7411C54.4969 39.4065 58.2087 28.4164 62.9741 21.9519C64.6577 19.6696 69.4312 12.7252 74.6483 13.4157L74.6443 13.4157Z" fill="#F5B41A"/>
</svg>
