<svg width="34" height="34" viewBox="0 0 34 34" fill="none" xmlns="http://www.w3.org/2000/svg">
<path fill-rule="evenodd" clip-rule="evenodd" d="M17.0666 30.5833C14.6 30.5833 12.1833 29.9167 10.0666 28.6667L9.56663 28.3667L4.36663 29.7333L5.74996 24.6667L5.41663 24.15C4.0462 21.9616 3.31853 19.4321 3.31663 16.85C3.31663 9.28333 9.48329 3.11667 17.05 3.11667C20.7166 3.11667 24.1666 4.55 26.75 7.15C28.0291 8.42327 29.0428 9.93777 29.7323 11.6057C30.4218 13.2736 30.7733 15.0619 30.7666 16.8667C30.8 24.4333 24.6333 30.5833 17.0666 30.5833ZM21.7833 18.9667C22.15 19.1167 24.1833 20.1167 24.6 20.3167C25.0166 20.5167 25.2666 20.6 25.3833 20.7833C25.5 20.9667 25.5 21.7833 25.15 22.75C24.8166 23.7167 23.1666 24.6 22.3666 24.7167C21.65 24.8167 20.75 24.8667 19.7666 24.55C19.1666 24.3667 18.4 24.1167 17.4166 23.6833C13.2833 21.9 10.5666 17.7333 10.3666 17.45L10.3634 17.4457C10.1511 17.1628 8.68329 15.206 8.68329 13.1833C8.68329 11.15 9.74996 10.15 10.1166 9.73334C10.5 9.31667 10.9333 9.21667 11.2166 9.21667H12.0166C12.2666 9.23334 12.6166 9.13334 12.95 9.93334C13.2833 10.7667 14.1166 12.8 14.2166 13C14.3166 13.2 14.3833 13.4333 14.25 13.7167C14.1166 13.9833 14.0333 14.1667 13.8333 14.4C13.6333 14.6333 13.4 14.9333 13.2166 15.1167C13 15.3333 12.8 15.55 13.0333 15.9667C13.2833 16.3833 14.1 17.7333 15.3333 18.8333C16.9 20.2333 18.2333 20.6833 18.65 20.8833C19.0666 21.1 19.3166 21.0667 19.55 20.7833C19.7833 20.5167 20.5666 19.5833 20.85 19.1667C21.1333 18.7667 21.4 18.8333 21.7833 18.9667Z" fill="#181613"/>
<path fill-rule="evenodd" clip-rule="evenodd" d="M23.396 1.58342C25.4019 2.41612 27.222 3.63988 28.75 5.18334C31.8666 8.3 33.5833 12.45 33.5833 16.8667C33.5833 25.9667 26.1666 33.3833 17.0666 33.3833C14.3 33.3833 11.5833 32.6833 9.16663 31.3667L0.416626 33.6667L2.74996 25.1C1.31663 22.6 0.54996 19.7667 0.54996 16.85C0.54996 7.75 7.96663 0.333336 17.0666 0.333336C19.2385 0.32577 21.3901 0.750727 23.396 1.58342ZM10.0666 28.6667C12.1833 29.9167 14.6 30.5833 17.0666 30.5833C24.6333 30.5833 30.8 24.4333 30.7666 16.8667C30.7733 15.0619 30.4218 13.2736 29.7323 11.6057C29.0428 9.93777 28.0291 8.42327 26.75 7.15C24.1666 4.55 20.7166 3.11667 17.05 3.11667C9.48329 3.11667 3.31663 9.28333 3.31663 16.85C3.31853 19.4321 4.0462 21.9616 5.41663 24.15L5.74996 24.6667L4.36663 29.7333L9.56663 28.3667L10.0666 28.6667Z" fill="#181613"/>
</svg>
